<svg width="414" height="250" viewBox="0 0 414 250" fill="none" xmlns="http://www.w3.org/2000/svg">
<g clip-path="url(#clip0_1782_3679)">
<rect width="413.793" height="250" fill="#ABC8FF"/>
<circle cx="366.379" cy="24.1381" r="166.379" fill="#6893E4"/>
<path d="M336.338 124.08L279.312 79.9534L279.311 79.9529C267.384 99.3342 257.415 91.5762 257.415 91.5762C257.415 91.5762 261.334 81.19 262.389 76.8198C262.754 75.3067 263.188 73.8593 263.801 72.5387C262.439 72.2014 261.134 72.0109 259.902 72.0109C249.622 72.0109 240.337 78.975 225.415 80.4668C210.493 81.959 194.576 68.7798 194.576 68.7798L179.985 113.379C199.716 110.313 224.088 117.109 237.684 126.726C251.28 136.342 274.824 149.606 284.606 151.264C294.389 152.922 302.015 145.959 302.015 145.959C314.285 145.959 319.258 138.663 319.258 138.663C329.537 137.005 328.875 130.042 328.875 130.042C334.163 130.483 336.228 127.263 336.338 124.08Z" fill="#FFBE92"/>
<path d="M336.339 124.08C349.772 119.474 381.102 113.461 381.102 113.461C380.439 99.3675 371.32 71.3478 371.32 71.3478C355.403 76.4875 322.354 80.4667 322.354 80.4667C308.206 67.866 293.891 63.3894 291.57 62.892C289.248 62.3946 274.99 65.2133 270.016 66.9055C265.042 68.5977 263.443 72.4491 262.389 76.8197C261.335 81.1899 257.415 91.5762 257.415 91.5762C257.415 91.5762 267.384 99.3342 279.311 79.9524L336.339 124.08Z" fill="#FAA35E"/>
<path d="M257.415 91.5766C257.415 91.5766 268.116 87.4307 261.128 81.0894L257.415 91.5766Z" fill="#FFBE92"/>
<mask id="mask0_1782_3679" style="mask-type:luminance" maskUnits="userSpaceOnUse" x="179" y="68" width="158" height="84">
<path d="M336.338 124.081L279.312 79.9544C279.312 79.9544 279.311 79.9539 279.311 79.9539C267.383 99.3352 257.414 91.5772 257.414 91.5772C257.414 91.5772 261.334 81.191 262.389 76.8208C262.754 75.3077 263.188 73.8602 263.801 72.5396C262.439 72.2024 261.134 72.0119 259.901 72.0119C249.622 72.0119 240.337 78.976 225.415 80.4677C210.493 81.9599 194.576 68.7808 194.576 68.7808L179.985 113.38C199.716 110.314 224.088 117.11 237.684 126.727C251.28 136.343 274.824 149.607 284.606 151.265C294.388 152.923 302.015 145.96 302.015 145.96C314.285 145.96 319.258 138.664 319.258 138.664C329.537 137.006 328.875 130.043 328.875 130.043C334.163 130.484 336.227 127.264 336.338 124.081Z" fill="white"/>
</mask>
<g mask="url(#mask0_1782_3679)">
<path d="M295.052 112.062C306.218 120.213 318.607 127.618 331.651 132.213C332.003 132.338 333.078 131.815 332.595 131.645C319.615 127.072 307.264 119.711 296.153 111.599C295.818 111.355 294.736 111.831 295.052 112.062Z" fill="#F4AA78"/>
<path d="M288.77 126.425C297.247 134.227 309.742 138.771 321.427 139.188C321.681 139.197 322.769 138.749 322.184 138.727C310.617 138.313 298.264 133.768 289.873 126.044C289.649 125.839 288.58 126.249 288.77 126.425Z" fill="#F4AA78"/>
<path d="M280.117 138.348C287.795 141.714 295.744 144.738 303.863 146.842C304.11 146.907 305.057 146.507 304.752 146.428C296.674 144.334 288.775 141.331 281.136 137.982C280.845 137.854 280.009 138.3 280.117 138.348Z" fill="#F4AA78"/>
</g>
<path d="M279.312 79.9531C279.312 79.9531 279.855 80.2541 280.805 80.7808C281.277 81.0459 281.85 81.3687 282.507 81.7388C283.159 82.1148 283.909 82.5167 284.704 82.9873C286.311 83.894 288.186 84.9525 290.195 86.0861C290.697 86.3676 291.207 86.6546 291.723 86.9441C292.243 87.2266 292.77 87.5126 293.3 87.8011C294.353 88.392 295.436 88.9621 296.517 89.5381C297.586 90.1384 298.693 90.6542 299.755 91.2258C300.833 91.761 301.893 92.2882 302.919 92.798C303.962 93.2691 304.965 93.7346 305.917 94.1843C306.886 94.5817 307.8 94.9692 308.644 95.3373C309.504 95.6616 310.291 95.959 310.989 96.2232C311.687 96.5062 312.313 96.6808 312.827 96.8449C313.856 97.1687 314.45 97.3786 314.45 97.3786C314.45 97.3786 313.833 97.3413 312.746 97.2319C312.203 97.1722 311.532 97.1334 310.793 96.9583C310.05 96.8051 309.197 96.6579 308.289 96.4221C307.389 96.1684 306.408 95.8964 305.382 95.5691C304.375 95.2055 303.3 94.8389 302.214 94.4012C301.145 93.9311 300.013 93.4939 298.908 92.9597C297.808 92.4195 296.674 91.8938 295.584 91.2939C294.49 90.699 293.392 90.1126 292.346 89.4754C291.284 88.8656 290.273 88.2105 289.292 87.5823C288.301 86.971 287.387 86.3099 286.507 85.7071C285.627 85.1027 284.822 84.4924 284.076 83.9353C282.593 82.8082 281.396 81.8184 280.578 81.1016C279.756 80.3898 279.312 79.9531 279.312 79.9531Z" fill="#F48C45"/>
<path d="M337.005 123.789C318.364 109.364 299.722 94.9388 281.08 80.5146C280.706 80.2246 280.306 79.7993 279.879 79.5859C279.503 79.3979 278.861 79.5571 278.634 79.9192C274.84 85.9756 267.236 95.9012 258.845 91.7295C258.624 91.6196 258.411 91.4942 258.204 91.3624C257.824 91.1207 258.216 91.2858 258.147 91.4684C258.599 90.2682 259.04 89.0629 259.477 87.8567C260.281 85.6383 261.059 83.411 261.797 81.1697C262.735 78.3245 263.292 75.3247 264.476 72.5721C264.573 72.3472 264.481 72.1781 264.235 72.1219C258.304 70.7725 252.487 72.4597 246.877 74.3791C239.625 76.8602 232.497 79.4432 224.793 80.0938C214.425 80.9692 203.065 74.9298 195.242 68.4889C194.858 68.172 194.013 68.37 193.853 68.8614C188.989 83.7278 184.125 98.5937 179.262 113.46C179.156 113.785 179.714 113.84 179.896 113.813C193.234 111.829 207.018 113.985 219.675 118.383C225.424 120.382 230.996 123.015 236.076 126.376C240.831 129.523 245.5 132.75 250.381 135.708C259.757 141.393 269.597 147.049 280.022 150.584C287.818 153.227 296.153 151.551 302.453 146.231C302.786 145.95 302.312 146.39 302.569 146.387C303.158 146.379 303.747 146.335 304.335 146.295C305.605 146.208 306.86 145.979 308.104 145.719C310.15 145.291 312.19 144.536 314.025 143.539C316.208 142.354 318.273 140.84 319.809 138.866C319.902 138.748 320.296 138.887 320.898 138.755C322.034 138.508 323.136 138.092 324.191 137.614C325.62 136.967 327.019 135.958 327.965 134.696C328.987 133.336 329.738 131.587 329.596 129.848C329.264 130.06 328.934 130.271 328.603 130.481C332.94 130.695 336.745 128.68 337.062 123.999C337.104 123.363 335.651 123.634 335.615 124.161C335.364 127.88 332.907 129.787 329.147 129.602C328.792 129.585 328.117 129.776 328.154 130.235C328.368 132.848 326.481 135.191 324.419 136.511C322.911 137.476 321.086 137.917 319.348 138.23C319.048 138.283 318.756 138.379 318.575 138.641C318.096 139.33 317.464 139.922 316.847 140.485C312.626 144.339 307.524 144.917 302.104 145.525C301.431 145.6 300.792 146.351 300.285 146.725C298.31 148.184 296.095 149.305 293.775 150.098C288.345 151.954 283.182 150.709 278.052 148.714C272.924 146.719 267.991 144.203 263.143 141.612C257.706 138.706 252.389 135.573 247.171 132.291C242.494 129.349 238.081 125.963 233.277 123.23C217.697 114.368 197.829 110.305 180.075 112.946C180.286 113.063 180.497 113.181 180.709 113.298C185.572 98.432 190.436 83.5657 195.3 68.6993C194.836 68.8236 194.373 68.9475 193.91 69.0718C198.041 72.4731 202.803 75.2337 207.669 77.4198C211.634 79.201 215.831 80.4335 220.156 80.8991C224.988 81.4194 229.957 80.3937 234.623 79.2169C243.536 76.9681 253.118 71.0276 262.557 72.7715C263.222 72.8944 257.365 89.8717 256.692 91.6569C256.644 91.7862 256.763 91.8782 256.847 91.9429C258.8 93.4351 261.626 93.7286 263.976 93.4431C271.224 92.5637 276.42 85.6801 279.988 79.9864C279.573 80.0978 279.158 80.2087 278.743 80.3196C280.922 81.4094 284.033 84.4127 286.269 86.1437C292.058 90.6233 297.847 95.1029 303.636 99.582C313.947 107.561 324.259 115.54 334.57 123.519C334.937 123.804 335.305 124.088 335.672 124.372C336.102 124.704 337.441 124.126 337.005 123.789Z" fill="#F4AA78"/>
<path d="M336.595 124.274C350.927 119.411 366.134 116.61 380.976 113.757C381.189 113.716 381.839 113.585 381.822 113.268C381.354 104.46 379.032 95.7068 376.762 87.2226C375.321 81.8322 373.765 76.4623 372.041 71.155C371.964 70.9182 371.399 71.0471 371.252 71.0938C361.341 74.2533 350.939 75.95 340.69 77.5869C336.399 78.2723 332.099 78.8981 327.793 79.482C326.534 79.6526 325.274 79.8183 324.015 79.9789C323.656 80.0247 323.298 80.07 322.938 80.1142C322.179 80.2082 322.947 80.1396 322.298 79.5686C314.116 72.3627 304.221 66.3267 293.77 63.0409C291.334 62.2749 289.044 62.6181 286.538 62.9852C281.8 63.6786 277.073 64.6778 272.446 65.9079C269.989 66.561 267.702 67.3648 265.717 69.0062C263.249 71.0466 262.318 74.3717 261.575 77.3397C260.354 82.2212 258.474 86.9913 256.701 91.6952C256.68 91.7495 256.691 91.7942 256.738 91.8305C258.728 93.3516 261.548 93.5973 263.938 93.3068C271.233 92.4219 276.43 85.5697 280.024 79.8347C279.561 79.959 279.097 80.0834 278.634 80.2072C297.276 94.6319 315.918 109.057 334.56 123.482C334.927 123.766 335.294 124.051 335.662 124.335C335.995 124.593 337.274 124.028 337.015 123.827C318.374 109.402 299.732 94.9776 281.091 80.5524C280.723 80.2679 280.356 79.9839 279.988 79.6994C279.66 79.4452 278.797 79.7556 278.599 80.0719C274.807 86.1228 266.927 96.3852 258.584 91.6415C258.05 91.3381 258.116 91.4933 258.281 91.0531C258.944 89.2809 259.588 87.5016 260.221 85.7185C261.824 81.1991 262.685 76.0942 264.811 71.8111C267.437 66.5182 274.627 65.804 279.819 64.738C282.137 64.262 284.467 63.8447 286.809 63.502C288.277 63.2871 289.968 62.923 291.438 63.297C301.392 65.8308 310.861 71.8678 318.753 78.2286C319.81 79.0806 320.997 80.915 322.466 80.7345C323.446 80.6146 324.425 80.4878 325.404 80.3599C329.825 79.782 334.237 79.1453 338.642 78.4623C349.615 76.7627 360.787 74.9825 371.389 71.6022C371.127 71.5818 370.864 71.5619 370.601 71.5415C372.262 76.6558 373.755 81.8293 375.164 87.0182C377.516 95.6814 379.904 104.653 380.382 113.655C380.665 113.492 380.947 113.329 381.229 113.166C366.126 116.068 350.666 118.939 336.082 123.887C335.11 124.215 336.024 124.468 336.595 124.274Z" fill="#F4914E"/>
<path d="M223.442 127.614C223.499 123.23 231.003 117.896 239.006 117.214C247.009 116.533 245.586 121.584 239.958 127.233C234.331 132.883 223.37 133.07 223.442 127.614Z" fill="#FAA35E"/>
<path d="M234.747 119.268C234.747 119.268 242.309 117.154 243.055 119.268C243.802 121.382 240.47 124.486 238.901 124.988C238.901 124.988 235.142 123.745 234.747 119.268Z" fill="#FFBE92"/>
<path d="M224.171 127.553C224.482 123.02 229.989 120.202 233.701 118.854C236.715 117.76 245.958 115.925 243.304 121.899C241.522 125.911 237.531 129.169 233.42 130.469C230.606 131.359 224.346 131.873 224.171 127.553C224.141 126.813 222.688 127.055 222.713 127.672C222.896 132.169 228.566 132.504 231.935 131.833C237.547 130.718 243.02 126.631 245.045 121.142C247.105 115.557 238.569 116.627 235.72 117.245C230.907 118.29 223.107 121.923 222.713 127.672C222.663 128.402 224.128 128.181 224.171 127.553Z" fill="#F4914E"/>
<path d="M230.768 133.466C232.255 128.216 255.766 115.547 264.539 116.76C273.309 117.973 269.441 127.768 248.636 137.117C237.726 142.02 229.281 138.715 230.768 133.466Z" fill="#FAA35E"/>
<path d="M257.415 118.851C257.415 118.851 266.032 116.662 266.981 119.349C267.929 122.036 264.689 125.485 262.695 126.122C262.695 126.122 257.918 124.541 257.415 118.851Z" fill="#FFBE92"/>
<path d="M231.462 133.569C232.203 131.317 234.787 129.655 236.603 128.336C239.885 125.953 243.483 123.992 247.123 122.22C250.629 120.513 254.272 119.047 258.04 118.035C260.742 117.309 264.142 116.615 266.735 118.07C272.689 121.412 260.842 129.72 258.634 131.165C253.279 134.67 246.945 138.082 240.531 138.854C237.078 139.269 230.329 138.408 231.5 133.422C231.675 132.677 230.194 132.831 230.035 133.511C229.164 137.22 232.488 139.176 235.642 139.842C241.688 141.119 247.925 138.205 253.165 135.573C257.918 133.184 262.609 130.317 266.357 126.503C268.102 124.726 270.067 122.156 269.581 119.499C269.162 117.208 266.414 116.395 264.447 116.166C260.858 115.748 256.994 117.075 253.672 118.253C246.003 120.974 237.38 125.043 231.645 130.984C230.99 131.663 230.37 132.46 230.073 133.366C229.803 134.185 231.245 134.227 231.462 133.569Z" fill="#F4914E"/>
<path d="M243.235 138.857C243.235 138.857 270.922 122.496 279.861 124.717C288.798 126.939 283.602 136.381 261.319 144.635C252.711 147.824 242.196 146.412 243.235 138.857Z" fill="#FAA35E"/>
<path d="M271.218 127.41C271.218 127.41 280.83 124.723 281.779 127.41C282.727 130.097 278.492 134.043 276.498 134.68C276.498 134.68 271.722 133.1 271.218 127.41Z" fill="#FFBE92"/>
<path d="M243.688 139.093C248.412 136.305 253.292 133.759 258.238 131.393C262.099 129.546 266.043 127.83 270.111 126.49C273.236 125.461 276.862 124.342 280.126 125.325C282.595 126.068 283.931 128.038 282.838 130.5C281.218 134.148 276.962 136.629 273.69 138.542C268.048 141.842 261.359 145.027 254.806 145.713C250.063 146.21 243.341 144.822 243.957 138.772C244.019 138.155 242.564 138.42 242.512 138.938C242.085 143.13 244.959 145.436 248.767 146.308C253.689 147.435 258.827 146.033 263.403 144.274C268.937 142.147 274.456 139.558 279.212 135.978C281.456 134.289 284.072 132.01 284.673 129.117C285.909 123.172 276.241 124.056 273.14 124.787C264.942 126.721 257.142 130.824 249.749 134.746C247.403 135.99 245.069 137.268 242.781 138.618C241.94 139.114 243.196 139.383 243.688 139.093Z" fill="#F4914E"/>
<path d="M287.104 134.391C285.233 133.926 282.425 134.392 279.234 135.369C275.522 138.334 269.604 141.566 261.318 144.635C259.766 145.21 258.153 145.633 256.556 145.9C255.602 146.441 263.345 154.611 270.878 151.821C290.378 144.599 294.925 136.336 287.104 134.391Z" fill="#FAA35E"/>
<path d="M278.661 136.565C278.661 136.565 288.274 133.878 289.222 136.565C290.17 139.252 285.935 143.199 283.941 143.836C283.941 143.836 279.164 142.256 278.661 136.565Z" fill="#FFBE92"/>
<path d="M287.693 134.098C284.621 133.498 280.325 134.095 277.817 135.992C273.341 139.378 268.054 141.716 262.866 143.762C261.104 144.457 259.338 145.063 257.484 145.462C257.02 145.562 256.42 145.578 256 145.86C255.443 146.233 256.027 146.935 256.318 147.291C258.615 150.106 262.12 152.036 265.688 152.601C269.698 153.236 273.626 151.115 277.164 149.536C281.033 147.81 284.846 145.727 288.069 142.952C289.656 141.585 291.471 139.644 291.452 137.406C291.435 135.452 289.273 134.521 287.693 134.098C287.344 134.004 286.066 134.559 286.515 134.68C290.905 135.855 290.483 139.21 287.761 142.087C285.564 144.407 282.656 146.09 279.867 147.58C275.479 149.923 270.034 152.982 264.993 151.618C262.305 150.891 259.73 149.124 257.889 147.052C256.705 145.72 257.712 145.951 259.02 145.627C261.106 145.109 263.114 144.248 265.101 143.445C268.407 142.108 271.671 140.592 274.75 138.786C276.187 137.944 277.583 137.05 278.929 136.066C280.868 134.65 284.194 134.227 286.515 134.68C286.868 134.749 288.127 134.183 287.693 134.098Z" fill="#F4914E"/>
<path d="M363.65 66.9051C363.65 66.9051 350.491 71.8333 348.575 73.5523C348.575 73.5523 358.179 118.38 361.66 121.558C365.142 124.735 382.054 116.086 382.054 116.086C382.054 116.086 370.614 66.7727 363.65 66.9051Z" fill="#CAEFEA"/>
<path d="M363.65 66.9048C363.65 66.9048 381.557 127.52 386.531 132.096C386.531 132.096 404.799 124.405 425.011 113.379C425.011 113.379 429.034 57.9262 419.584 40.5171C419.584 40.5171 388.822 52.9109 363.65 66.9048Z" fill="#424244"/>
<path d="M194.982 66.9055C194.982 66.9055 207.146 75.3156 209.062 77.0346C209.062 77.0346 200.453 112.909 196.971 116.087C193.49 119.264 176.578 116.087 176.578 116.087C176.578 116.087 188.018 66.7732 194.982 66.9055Z" fill="#F7E8BC"/>
<path d="M172.102 132.096C177.076 127.52 194.982 66.9048 194.982 66.9048C169.81 52.9109 143.028 45.1255 143.028 45.1255L-19.8277 -30.6035L-27.1553 53.8792L133.621 113.379C153.833 124.405 172.102 132.096 172.102 132.096Z" fill="#424244"/>
</g>
<defs>
<clipPath id="clip0_1782_3679">
<rect width="413.793" height="250" fill="white"/>
</clipPath>
</defs>
</svg>
